HIERARCHY
ROOT pelvis
{
  OFFSET 0 100 0
  CHANNELS 6 Xposition Yposition Zposition Zrotation Xrotation Yrotation
  JOINT pelvis_right_femur
  {
    OFFSET -10.78128 -3.44521 -0.5502486
    CHANNELS 3 Zrotation Xrotation Yrotation
    JOINT right_femur_tibia
    {
      OFFSET -0.8047443 -44.0398 -0.1307829
      CHANNELS 3 Zrotation Xrotation Yrotation
      JOINT right_tibia_foot
      {
        OFFSET 3.006224 -47.83518 -5
        CHANNELS 3 Zrotation Xrotation Yrotation
        End Site
        {
          OFFSET 0 -5 15
        }
      }
    }
  }
  JOINT pelvis_left_femur
  {
    OFFSET 10.78128 -3.44521 -0.5502486
    CHANNELS 3 Zrotation Xrotation Yrotation
    JOINT left_femur_tibia
    {
      OFFSET 0.8047443 -44.0398 -0.1307829
      CHANNELS 3 Zrotation Xrotation Yrotation
      JOINT left_tibia_foot
      {
        OFFSET -4.370144 -48.10324 -4.275266
        CHANNELS 3 Zrotation Xrotation Yrotation
        End Site
        {
          OFFSET 0 -5 15
        }
      }
    }
  }
  JOINT pelvis_spine1
  {
    OFFSET 0 6.468898 -3.129235
    CHANNELS 3 Zrotation Xrotation Yrotation
    JOINT spine1
    {
      OFFSET 0 23.15396 4.99043
      CHANNELS 3 Zrotation Xrotation Yrotation
      JOINT spine2
      {
        OFFSET 0 20.79997 -5.064912
        CHANNELS 3 Zrotation Xrotation Yrotation
        JOINT neck
        {
          OFFSET 0 14.38658 9.616178
          CHANNELS 3 Zrotation Xrotation Yrotation
          End Site
          {
            OFFSET 0 20 0
          }
        }
      }
      JOINT right_manubrium
      {
        OFFSET -5.722621 16.35077 3.967754
        CHANNELS 3 Zrotation Xrotation Yrotation
        JOINT right_clavicle
        {
          OFFSET -13.16364 1.694482 -4.693211
          CHANNELS 3 Zrotation Xrotation Yrotation
          JOINT right_humerus
          {
            OFFSET -28.5034 -0.3100689 -2.792744
            CHANNELS 3 Zrotation Xrotation Yrotation
            JOINT right_radius
            {
              OFFSET -25.15693 0.02248979 -1.271978
              CHANNELS 3 Zrotation Xrotation Yrotation
              End Site
              {
                OFFSET -15 0 0
              }
            }
          }
        }
      }
      JOINT left_manubrium
      {
        OFFSET 5.722621 16.35077 3.967754
        CHANNELS 3 Zrotation Xrotation Yrotation
        JOINT left_clavicle
        {
          OFFSET 13.16364 1.694482 -4.693211
          CHANNELS 3 Zrotation Xrotation Yrotation
          JOINT left_humerus
          {
            OFFSET 29.39168 -1.063119 -2.237045
            CHANNELS 3 Zrotation Xrotation Yrotation
            JOINT left_radius
            {
              OFFSET 24.59957 -0.9528479 0.9047498
              CHANNELS 3 Zrotation Xrotation Yrotation
              End Site
              {
                OFFSET 15 -0 -0
              }
            }
          }
        }
      }
    }
  }
}
MOTION
Frames: 23
Frame Time: 0.0416666666667
0 103.5113 0 1.42975 -2.623718 0.1960447 1.379744 -10.84175 7.984064 -0 41.66776 -0 -6.713337 -15.60494 -4.166168 -6.783466 11.88877 -24.93976 -0 5.209107 -0 0.4043756 -18.99914 24.29154 -0.1857776 -1.735078 4.244827 0.04915773 7.215636 -7.265499 1.68213 22.23323 8.171608 5.510283 -22.41435 8.892635 5.866376 -18.60145 10.25805 89.32736 36.34471 -24.38465 -0 0 16.92832 -5.029145 7.764052 1.323265 6.831758 -21.01955 -2.803338 -101.9472 42.5623 30.12067 0 0 -25.8817 -9.571637 18.85966 28.30786
0.1471804 103.6137 1.292265 1.270737 -2.027318 0.3476761 1.65916 -12.97437 8.513326 -0 42.48308 -0 -5.890047 -15.2269 -4.284845 -6.725008 12.46359 -25.42716 -0 5.720643 -0 -1.443138 -20.69688 23.81302 -0.1144106 -1.747679 4.305666 -0.0201096 7.268245 -7.273095 1.680526 22.16469 8.215696 5.552532 -22.36446 8.900432 5.841574 -18.63338 10.23847 89.43445 36.44267 -24.47262 -0 0 16.96444 -5.177638 7.965257 1.304973 6.951479 -21.15129 -2.755761 -101.8745 42.46048 30.07898 0 0 -26.03336 -9.428781 18.89327 28.20193
0.2830439 103.4755 2.849015 0.6490741 -1.945249 0.4498838 2.684664 -17.48506 7.239903 -0 39.92615 -0 -6.415544 -12.55528 -3.48845 -6.212648 12.81663 -24.26296 -0 6.470735 -0 -1.325598 -21.85125 22.90492 -0.2575665 -1.545177 3.823164 0.6411304 7.422051 -7.779548 1.41014 21.60282 8.411339 5.447287 -22.76051 8.746124 6.178565 -17.84433 10.46171 89.11573 36.41925 -24.55963 -0 0 15.6389 -7.00518 9.852172 2.736351 7.17951 -21.45673 -2.558736 -98.79997 40.35948 26.61376 0 0 -25.9473 -8.049694 17.87603 26.33018
0.4209651 103.1828 4.603138 0.2866252 -1.301985 0.5418394 3.398864 -21.22716 6.721171 -0 37.18954 -0 -6.087357 -11.15923 -3.067594 -6.015273 13.07552 -23.41968 -0 6.615392 -0 -1.080169 -22.86964 22.26941 -0.3072131 -1.482409 3.686535 0.8303184 7.468528 -7.920071 1.334362 21.45589 8.456925 5.407966 -22.86363 8.696567 6.253719 -17.61953 10.52576 89.04107 36.40146 -24.57905 -0 0 15.2372 -7.563961 10.36054 3.167338 7.221463 -21.53709 -2.517047 -97.93264 39.71034 25.62919 0 0 -25.92364 -7.650981 17.56126 25.77411
0.5786096 102.6986 6.657531 -0.03328214 -0.2441423 0.6361211 4.18227 -25.55599 6.196737 -0 32.92687 -0 -5.515133 -9.750246 -2.631867 -5.936512 13.37346 -22.26991 -0 6.520912 -0 -0.1252965 -23.80261 21.65614 -0.3887817 -1.406099 3.514699 1.065586 7.507433 -8.074875 1.250309 21.3145 8.491192 5.348865 -22.98979 8.635316 6.343791 -17.35287 10.60513 88.92206 36.33758 -24.57039 -0 0 14.76437 -8.154612 10.85122 3.665797 7.22468 -21.58487 -2.491473 -96.9845 38.9855 24.53016 0 0 -25.84995 -7.239641 17.17971 25.16493
0.7558901 102.0409 9.089132 -0.2794933 1.010548 0.7643937 4.852683 -29.50794 5.702352 -0 28.18703 -0 -4.945903 -8.278882 -2.251591 -5.942071 13.73862 -21.09022 -0 6.47333 -0 0.7381336 -24.61932 20.94418 -0.4505056 -1.353281 3.417605 1.206971 7.525712 -8.15302 1.20077 21.25986 8.494383 5.299194 -23.06333 8.590737 6.370758 -17.21156 10.65523 88.85513 36.30557 -24.53101 -0 0 14.47367 -8.518127 11.09817 3.97206 7.181799 -21.58694 -2.494905 -96.44809 38.55553 23.92536 0 0 -25.77452 -7.02097 16.95431 24.82362
0.94535 101.2472 12.01306 -0.5194023 2.41035 0.9618311 5.469438 -33.0286 5.174281 -0 23.15131 -0 -4.54255 -6.52588 -1.908231 -5.955828 14.2347 -19.84813 -0 6.778671 -0 1.18859 -25.25584 19.93374 -0.5195119 -1.293331 3.336006 1.339497 7.54345 -8.212813 1.152076 21.23542 8.481165 5.236401 -23.12838 8.537612 6.360627 -17.10008 10.70609 88.80554 36.29803 -24.45608 -0 0 14.18256 -8.913305 11.31577 4.285555 7.096951 -21.5704 -2.514744 -95.94289 38.12692 23.38825 0 0 -25.67467 -6.824096 16.74193 24.50672
1.132161 100.3813 15.5277 -0.8162664 3.738043 1.258939 6.051239 -35.63349 4.632032 -0 18.58136 -0 -4.472492 -4.550647 -1.626317 -5.881201 14.84059 -18.62126 -0 7.827537 -0 0.7710748 -25.49135 18.46377 -0.5945469 -1.223954 3.284302 1.451429 7.56325 -8.242931 1.105143 21.25424 8.445449 5.156213 -23.17641 8.472618 6.291348 -17.0409 10.75635 88.7879 36.33998 -24.32771 -0 0 13.90076 -9.367072 11.50494 4.60698 6.955364 -21.53239 -2.55495 -95.48648 37.70426 22.9638 0 0 -25.54318 -6.656981 16.5589 24.2301
1.301633 99.53916 19.70362 -1.238475 4.755453 1.663741 6.683378 -36.94722 4.131411 -0 15.14594 -0 -4.843805 -2.587629 -1.419928 -5.627786 15.46295 -17.42733 -0 10.10908 -0 -0.6443884 -24.96249 16.4881 -0.689289 -1.134181 3.253819 1.562426 7.59092 -8.249561 1.052163 21.31464 8.383119 5.046334 -23.21405 8.385084 6.159691 -17.02013 10.81584 88.78506 36.43394 -24.11702 -0 0 13.58436 -9.96442 11.70707 4.99842 6.738457 -21.4669 -2.618279 -94.99497 37.20756 22.56908 0 0 -25.35149 -6.484485 16.36799 23.93868
1.448326 98.84899 24.54338 -1.805553 5.209166 2.134982 7.428583 -36.67571 3.756251 -0 13.42319 -0 -5.66241 -1.073674 -1.303559 -5.153264 15.87057 -16.28326 -0 14.11028 -0 -2.798143 -23.30033 14.20672 -0.8120055 -1.021825 3.24952 1.67293 7.627273 -8.2253 0.9938255 21.42504 8.288275 4.901547 -23.23872 8.271627 5.965537 -17.04386 10.8881 88.77211 36.57928 -23.7887 -0 0 13.24075 -10.72315 11.91462 5.475258 6.431551 -21.35903 -2.705954 -94.47654 36.63081 22.22028 0 0 -25.06787 -6.311731 16.1652 23.63478
1.582804 98.46088 29.9638 -2.448327 4.950269 2.571649 8.245131 -34.73975 3.539461 -0 13.52215 -0 -6.816902 -0.4692764 -1.291731 -4.504384 15.69762 -15.18008 -0 20.17261 -0 -5.071822 -20.34562 12.02128 -0.9694023 -0.8882118 3.274231 1.783963 7.673831 -8.166423 0.9318983 21.58391 8.160092 4.722075 -23.24806 8.131984 5.724325 -17.10953 10.97656 88.70736 36.76168 -23.30984 -0 0 12.88679 -11.64769 12.12241 6.049766 6.035278 -21.19702 -2.811892 -93.93981 35.96907 21.92003 0 0 -24.66204 -6.137792 15.94046 23.31268
1.729173 98.51037 35.79871 -3.004672 4.034323 2.845802 8.931559 -31.28817 3.431362 -0 14.92079 -0 -8.05834 -1.050421 -1.400854 -3.818862 14.49871 -14.10225 -0 28.23037 -0 -6.88586 -16.36072 10.29637 -1.160061 -0.740181 3.333344 1.889339 7.733656 -8.071594 0.8704722 21.77885 8.004611 4.516889 -23.23578 7.970996 5.461309 -17.21232 11.08104 88.54884 36.95991 -22.66273 -0 0 12.55691 -12.72216 12.32845 6.717607 5.572026 -20.98002 -2.922243 -93.4056 35.23045 21.67396 0 0 -24.12137 -5.958306 15.68775 22.96755
1.91188 99.06227 41.83217 -3.276751 2.717936 2.872277 9.200895 -26.61075 3.331106 -0 16.60453 -0 -9.054109 -2.754248 -1.61717 -3.262776 11.86408 -13.02919 -0 37.66333 -0 -8.054044 -11.98006 9.153122 -1.374812 -0.5868073 3.431399 1.979894 7.81417 -7.945562 0.8135085 21.98458 7.834506 4.301069 -23.19161 7.796073 5.206744 -17.34064 11.19908 88.26604 37.14799 -21.8525 -0 0 12.28498 -13.93328 12.54863 7.471219 5.08256 -20.72278 -3.019824 -92.87863 34.41242 21.46258 0 0 -23.45843 -5.753652 15.39425 22.58019
2.140568 100.0633 47.85095 -3.106637 1.338836 2.658568 8.833043 -21.0647 3.141008 -0 17.46114 -0 -9.507334 -5.156252 -1.843901 -2.945455 7.571692 -11.92929 -0 47.29056 -0 -8.731009 -7.987483 8.536374 -1.598531 -0.4375945 3.572217 2.043591 7.925757 -7.796133 0.765035 22.17075 7.664929 4.092155 -23.10106 7.616063 4.988279 -17.48127 11.326 87.84881 37.29899 -20.90664 -0 0 12.10046 -15.26715 12.80689 8.297642 4.614118 -20.45061 -3.091359 -92.35471 33.5093 21.25613 0 0 -22.70883 -5.499029 15.04444 22.12976
2.404088 101.3365 53.69611 -2.444616 0.1467578 2.291486 7.824847 -15.05642 2.79959 -0 16.73601 -0 -9.325542 -7.563977 -1.902988 -2.849974 1.755285 -10.74689 -0 55.52818 -0 -9.04646 -5.055515 8.424072 -1.81513 -0.300533 3.75781 2.068325 8.077549 -7.630319 0.7292682 22.3122 7.50816 3.905171 -22.94901 7.439744 4.82512 -17.62394 11.45592 87.30651 37.38725 -19.86542 -0 0 12.02625 -16.70124 13.11909 9.17712 4.205605 -20.18793 -3.132482 -91.83207 32.52387 21.03249 0 0 -21.91775 -5.178754 14.62559 21.60812
2.678193 102.6257 59.2889 -1.411235 -0.8008977 1.879888 6.462606 -9.045601 2.320424 -0 14.38853 -0 -8.715366 -9.278373 -1.66364 -2.797764 -4.978985 -9.412717 -0 60.67887 -0 -8.868822 -3.52419 8.927634 -2.013332 -0.1806512 3.988902 2.044598 8.27205 -7.449713 0.7104888 22.39862 7.368919 3.748105 -22.72529 7.274098 4.723207 -17.7669 11.58313 86.6583 37.39231 -18.7631 -0 0 12.08117 -18.19948 13.47864 10.08331 3.875178 -19.94536 -3.147362 -91.32433 31.47825 20.79702 0 0 -21.11882 -4.798795 14.13559 21.03035
2.943527 103.6642 64.62329 -0.3051268 -1.613167 1.502893 5.222227 -3.475683 1.823046 -0 11.15429 -0 -8.062818 -10.04936 -1.205916 -2.486505 -11.66184 -7.889808 -0 61.4012 -0 -7.991893 -3.267761 10.1803 -2.190631 -0.07924894 4.267938 1.966641 8.50349 -7.247395 0.7123909 22.43712 7.24289 3.62019 -22.42764 7.122251 4.675335 -17.91992 11.70405 85.91551 37.30155 -17.60517 -0 0 12.28572 -19.72335 13.85661 10.99156 3.616921 -19.71237 -3.143147 -90.86238 30.40927 20.5881 0 0 -20.31384 -4.385787 13.58388 20.42971
3.204136 104.2352 69.74609 0.5152559 -2.417137 1.188334 4.500439 1.372923 1.481448 -0 8.134059 -0 -7.604443 -10.35881 -0.7906793 -1.642409 -17.37598 -6.225971 -0 57.25135 -0 -6.555022 -3.774356 12.08945 -2.351921 0.00501738 4.603016 1.830193 8.760848 -7.007994 0.7378983 22.44526 7.119687 3.515015 -22.05943 6.983148 4.66728 -18.10323 11.81801 85.06773 37.10797 -16.35828 -0 0 12.67122 -21.24582 14.21366 11.8866 3.410041 -19.46029 -3.123225 -90.48903 29.3557 20.46973 0 0 -19.46801 -3.975528 12.98625 19.84389
3.493313 104.2126 74.75011 0.8217477 -3.203051 0.9116434 4.389379 5.475309 1.392867 -0 6.142802 -0 -7.223364 -11.0419 -0.6213855 -0.2099037 -21.69177 -4.549846 -0 48.97322 -0 -5.10747 -4.444398 14.23025 -2.503412 0.07375965 5.007605 1.630102 9.03112 -6.712135 0.7892866 22.44016 6.988622 3.426247 -21.62701 6.853936 4.68506 -18.34226 11.92591 84.08715 36.80564 -14.96612 -0 0 13.28303 -22.7503 14.51324 12.75995 3.234427 -19.15356 -3.083793 -90.25213 28.35159 20.51707 0 0 -18.52701 -3.601928 12.36068 19.30542
3.861244 103.585 79.77502 0.6215906 -3.816306 0.6132317 4.673916 8.9875 1.508862 -0 5.386912 -0 -6.633735 -12.53684 -0.6723678 1.573145 -24.69551 -3.025961 -0 38.31168 -0 -4.178606 -4.877263 16.08354 -2.645877 0.1271867 5.492433 1.362498 9.299362 -6.34554 0.8672825 22.4305 6.84481 3.35181 -21.14267 6.733833 4.71776 -18.65812 12.02754 82.95491 36.39127 -13.38941 -0 0 14.16546 -24.21522 14.73155 13.59876 3.082773 -18.76505 -3.015458 -90.19469 27.42813 20.79546 0 0 -17.45038 -3.291373 11.7293 18.8393
4.355231 102.457 84.99148 0.1253227 -4.114033 0.2338337 4.975765 12.09402 1.704725 -0 5.684791 -0 -5.695849 -14.54284 -0.7549507 3.234864 -26.6421 -1.868303 -0 27.50259 -0 -3.920701 -4.96937 17.37049 -2.77112 0.1647136 6.050715 1.03263 9.548779 -5.911825 0.9687853 22.41378 6.693947 3.29418 -20.62983 6.627478 4.756619 -19.05309 12.11944 81.69922 35.87401 -11.65665 -0 0 15.32248 -25.6025 14.86841 14.37808 2.963909 -18.29361 -2.910681 -90.33291 26.61162 21.32476 0 0 -16.25155 -3.057072 11.12015 18.45999
5.006135 101.0236 90.56473 -0.3545939 -4.129071 -0.256135 4.907855 14.91353 1.885615 -0 6.912249 -0 -4.537755 -16.22597 -0.7139091 4.203857 -27.66103 -1.374641 -0 18.69714 -0 -4.146445 -4.874639 18.13644 -2.863998 0.1874844 6.644684 0.6630313 9.765762 -5.44293 1.085361 22.37904 6.553169 3.25684 -20.12154 6.546124 4.794484 -19.49595 12.19483 80.42227 35.28488 -9.89982 -0 0 16.6714 -26.86149 14.95613 15.06365 2.895907 -17.77786 -2.776103 -90.62657 25.91394 22.03765 0 0 -15.02666 -2.892436 10.55964 18.1666
5.822014 99.53288 96.61566 -0.5240569 -4.08742 -0.8394417 4.210428 17.44873 2.028605 -0 9.299388 -0 -3.472022 -16.59107 -0.5467584 4.021928 -27.72499 -1.821859 -0 13.4053 -0 -4.52937 -4.887229 18.60103 -2.90913 0.200287 7.205796 0.2932985 9.947697 -4.997015 1.204957 22.31441 6.445837 3.23943 -19.64904 6.505826 4.827145 -19.92031 12.24532 79.29012 34.67573 -8.341831 -0 0 18.03004 -27.9421 15.05483 15.62122 2.892857 -17.29409 -2.641349 -90.9691 25.32903 22.77028 0 0 -13.94592 -2.771709 10.06033 17.94504
